HIERARCHY
ROOT Hips
{
	OFFSET 0.000000 0.000000 0.000000
	CHANNELS 6 Xposition Yposition Zposition Zrotation Yrotation Xrotation 
	JOINT LHipJoint
	{
		OFFSET 0.000000 0.000000 0.000000
		CHANNELS 3 Zrotation Yrotation Xrotation
		JOINT LeftUpLeg
		{
			OFFSET 1.363060 -1.794630 0.839290
			CHANNELS 3 Zrotation Yrotation Xrotation
			JOINT LeftLeg
			{
				OFFSET 2.448110 -6.726130 0.000000
				CHANNELS 3 Zrotation Yrotation Xrotation
				JOINT LeftFoot
				{
					OFFSET 2.562200 -7.039590 0.000000
					CHANNELS 3 Zrotation Yrotation Xrotation
					JOINT LeftToeBase
					{
						OFFSET 0.157640 -0.433110 2.322550
						CHANNELS 3 Zrotation Yrotation Xrotation
						End Site
						{
							OFFSET 0.000000 0.000000 0.000000
						}
					}
				}
			}
		}
	}
	JOINT RHipJoint
	{
		OFFSET 0.000000 0.000000 0.000000
		CHANNELS 3 Zrotation Yrotation Xrotation
		JOINT RightUpLeg
		{
			OFFSET -1.305520 -1.794630 0.839290
			CHANNELS 3 Zrotation Yrotation Xrotation
			JOINT RightLeg
			{
				OFFSET -2.542530 -6.985550 0.000000
				CHANNELS 3 Zrotation Yrotation Xrotation
				JOINT RightFoot
				{
					OFFSET -2.568260 -7.056230 0.000000
					CHANNELS 3 Zrotation Yrotation Xrotation
					JOINT RightToeBase
					{
						OFFSET -0.164730 -0.452590 2.363150
						CHANNELS 3 Zrotation Yrotation Xrotation
						End Site
						{
							OFFSET 0.000000 0.000000 0.000000
						}
					}
				}
			}
		}
	}
}
MOTION
Frames: 16
Frame Time: 0.008333
25.514348 15.928514 2.178468 154.393828 -85.952140 -129.526545 -7.786556 -1.880036 2.896289 -6.897866 -7.218473 -64.361752 -0.627408 1.934541 42.053236 2.285434 11.168683 -1.491087 2.008300 0.000000 -35.123300 11.973725 -3.815356 -1.534796 0.572930 -6.471754 4.053626 1.453057 -1.323329 15.465421 0.013220 2.248842 6.002113 0.358300 0.000001 -90.283700
25.306154 15.946439 2.197517 153.610224 -85.962174 -128.803425 -7.746485 -1.816035 2.791426 -7.358166 -7.127439 -63.791385 -0.632907 1.957779 42.864372 2.314826 11.192750 -2.474122 1.790400 -0.000001 -34.664100 12.145546 -3.877687 -1.553447 0.223107 -6.792920 3.019120 1.220342 -1.598462 17.956040 -0.098405 1.930118 8.584815 0.417900 0.000000 -91.528300
25.101520 15.967971 2.218189 153.066096 -85.982458 -128.320999 -7.726634 -1.749625 2.690316 -7.785763 -7.006880 -63.136007 -0.654792 1.969807 43.520590 2.335990 11.149386 -3.549118 1.541800 -0.000000 -34.342800 12.296853 -3.907902 -1.579086 -0.055212 -7.140222 1.819549 0.973882 -1.855145 20.673902 -0.254411 1.457758 11.232976 0.427501 -0.000000 -91.784100
24.900216 15.992859 2.238854 152.403141 -86.004833 -127.726937 -7.699305 -1.669480 2.593370 -8.221523 -6.894296 -62.384407 -0.691786 1.966543 44.018605 2.354073 11.077269 -4.663889 1.281500 0.000000 -34.117301 12.463327 -3.894000 -1.613657 -0.328358 -7.553970 0.454342 0.721625 -2.087562 23.609684 -0.448134 0.865049 13.857959 0.374601 -0.000000 -90.910700
24.702527 16.020890 2.260460 151.813550 -86.045431 -127.201260 -7.681262 -1.586859 2.505654 -8.613591 -6.788332 -61.571877 -0.735167 1.951813 44.385626 2.370338 10.986410 -5.772579 1.020900 -0.000001 -33.991800 12.615213 -3.838764 -1.652687 -0.528239 -7.971117 -1.031115 0.479943 -2.288764 26.685798 -0.676704 0.070204 16.332158 0.204001 0.000000 -88.837100
24.508452 16.052001 2.281513 151.005286 -86.094198 -126.458662 -7.648925 -1.491267 2.427049 -8.999862 -6.717707 -60.686347 -0.783998 1.922536 44.614698 2.389323 10.911693 -6.831745 0.773400 0.000000 -33.925900 12.779210 -3.737638 -1.699124 -0.707923 -8.416736 -2.623279 0.258797 -2.462291 29.869375 -0.926394 -0.903452 18.531400 -0.097699 0.000000 -85.742000
24.318037 16.086291 2.302584 150.102899 -86.162058 -125.623498 -7.615359 -1.390779 2.359217 -9.346185 -6.677063 -59.745482 -0.832778 1.882025 44.721792 2.410924 10.858247 -7.812769 0.544100 0.000000 -33.905700 12.932223 -3.600807 -1.754387 -0.820584 -8.853179 -4.279585 0.067880 -2.614158 33.087915 -1.186038 -2.094315 20.328909 -0.560500 0.000000 -81.907600
24.130936 16.123856 2.323259 149.058334 -86.245751 -124.649116 -7.577955 -1.284037 2.301413 -9.657188 -6.668565 -58.747294 -0.880400 1.830877 44.705320 2.435838 10.836748 -8.695020 0.337200 0.000000 -33.905800 13.074932 -3.436081 -1.820404 -0.871001 -9.274451 -5.977414 -0.092266 -2.754363 36.292878 -1.443427 -3.482221 21.633342 -1.173800 -0.000001 -77.755300
23.946842 16.164904 2.343402 147.887561 -86.341520 -123.553656 -7.538812 -1.171943 2.251974 -9.932623 -6.685322 -57.691258 -0.926757 1.770334 44.562039 2.463281 10.848040 -9.468703 0.153800 0.000000 -33.908100 13.203424 -3.252843 -1.896998 -0.855491 -9.665339 -7.698548 -0.226334 -2.892206 39.440072 -1.689423 -5.028540 22.389740 -1.901700 -0.000000 -73.680599
23.765407 16.209577 2.363013 146.654817 -86.445714 -122.400689 -7.503226 -1.057004 2.208892 -10.169451 -6.714306 -56.578631 -0.972563 1.701752 44.287626 2.491542 10.885841 -10.133256 -0.006700 -0.000000 -33.900300 13.311634 -3.060777 -1.981688 -0.766937 -10.006841 -9.431564 -0.341631 -3.034320 42.494030 -1.917684 -6.671825 22.580652 -2.684500 -0.000001 -69.961900
23.586293 16.257954 2.382196 145.439386 -86.554388 -121.269349 -7.476666 -0.942304 2.169510 -10.366348 -6.739670 -55.410212 -1.019272 1.626066 43.876645 2.518333 10.939193 -10.694571 -0.146100 0.000000 -33.876599 13.394584 -2.868130 -2.070330 -0.600696 -10.280996 -11.172280 -0.445500 -3.184190 45.428247 -2.123739 -8.331365 22.222036 -3.446900 -0.000000 -66.741200
23.408849 16.310014 2.401199 144.356065 -86.665870 -120.267688 -7.466465 -0.831982 2.132374 -10.518570 -6.744923 -54.190911 -1.068304 1.543756 43.324294 2.541105 10.993519 -11.163364 -0.266300 0.000001 -33.837200 13.445915 -2.682870 -2.156504 -0.349103 -10.468991 -12.920950 -0.543312 -3.341462 48.216596 -2.304795 -9.923939 21.365950 -4.115700 -0.000000 -64.086100
23.233025 16.365457 2.419717 143.433006 -86.771951 -119.427813 -7.470489 -0.726157 2.093301 -10.640221 -6.718794 -52.914400 -1.122051 1.454204 42.624755 2.558379 11.039842 -11.551434 -0.369800 -0.000000 -33.783900 13.470605 -2.507579 -2.236162 -0.031154 -10.568042 -14.680565 -0.638335 -3.506178 50.853250 -2.455583 -11.347229 20.058465 -4.614601 -0.000000 -61.715000
23.058098 16.424109 2.438377 142.830118 -86.875864 -118.900375 -7.498932 -0.631058 2.052937 -10.717697 -6.647800 -51.591617 -1.180437 1.357413 41.778281 2.567802 11.063264 -11.870411 -0.458200 -0.000000 -33.727700 13.458786 -2.348600 -2.301209 0.367155 -10.559242 -16.451265 -0.730659 -3.672440 53.304428 -2.575686 -12.548376 18.417761 -4.915800 0.000000 -59.759400
22.883927 16.485609 2.457130 142.603224 -86.973179 -118.739413 -7.551574 -0.547390 2.009985 -10.757001 -6.527393 -50.220807 -1.243918 1.252411 40.783609 2.568736 11.059223 -12.128247 -0.532700 -0.000000 -33.677500 13.412659 -2.206763 -2.347284 0.830619 -10.442619 -18.232392 -0.818862 -3.836243 55.555712 -2.661794 -13.469671 16.541977 -5.003800 -0.000000 -57.993700
22.710206 16.549206 2.475965 142.786148 -87.062670 -118.981108 -7.627266 -0.476003 1.962189 -10.762356 -6.355769 -48.802084 -1.311895 1.139082 39.649350 2.560655 11.024520 -12.331621 -0.594600 0.000000 -33.643400 13.334834 -2.080845 -2.372429 1.344745 -10.222239 -20.016029 -0.900527 -3.992930 57.589528 -2.712819 -14.086285 14.554753 -4.899100 -0.000000 -56.474899
